<mxfile host="app.diagrams.net" agent="Mozilla/5.0 (Windows NT 10.0; Win64; x64) AppleWebKit/537.36 (KHTML, like Gecko) Chrome/128.0.0.0 Safari/537.36" version="26.0.9">
  <diagram name="Page-1" id="L7OedpDa7cPHXnVf2t4i">
    <mxGraphModel dx="1050" dy="557" grid="1" gridSize="10" guides="1" tooltips="1" connect="1" arrows="1" fold="1" page="1" pageScale="1" pageWidth="827" pageHeight="1169" math="0" shadow="0">
      <root>
        <mxCell id="0" />
        <mxCell id="1" parent="0" />
        <mxCell id="t1g4-bJCEiVA6GThXXHM-47" style="edgeStyle=orthogonalEdgeStyle;rounded=0;orthogonalLoop=1;jettySize=auto;html=1;exitX=0.25;exitY=1;exitDx=0;exitDy=0;entryX=0.5;entryY=0;entryDx=0;entryDy=0;" edge="1" parent="1" source="t1g4-bJCEiVA6GThXXHM-2">
          <mxGeometry relative="1" as="geometry">
            <mxPoint x="150" y="250" as="targetPoint" />
          </mxGeometry>
        </mxCell>
        <mxCell id="t1g4-bJCEiVA6GThXXHM-50" style="edgeStyle=orthogonalEdgeStyle;rounded=0;orthogonalLoop=1;jettySize=auto;html=1;exitX=1;exitY=0.5;exitDx=0;exitDy=0;" edge="1" parent="1" source="t1g4-bJCEiVA6GThXXHM-2" target="t1g4-bJCEiVA6GThXXHM-49">
          <mxGeometry relative="1" as="geometry" />
        </mxCell>
        <mxCell id="t1g4-bJCEiVA6GThXXHM-65" style="edgeStyle=orthogonalEdgeStyle;rounded=0;orthogonalLoop=1;jettySize=auto;html=1;exitX=1;exitY=1;exitDx=0;exitDy=0;entryX=0;entryY=0.5;entryDx=0;entryDy=0;" edge="1" parent="1" source="t1g4-bJCEiVA6GThXXHM-2" target="t1g4-bJCEiVA6GThXXHM-30">
          <mxGeometry relative="1" as="geometry" />
        </mxCell>
        <mxCell id="t1g4-bJCEiVA6GThXXHM-2" value="Student" style="rounded=0;whiteSpace=wrap;html=1;fillColor=#0050ef;fontColor=#ffffff;strokeColor=#001DBC;" vertex="1" parent="1">
          <mxGeometry x="150" y="130" width="120" height="60" as="geometry" />
        </mxCell>
        <mxCell id="t1g4-bJCEiVA6GThXXHM-53" style="edgeStyle=orthogonalEdgeStyle;rounded=0;orthogonalLoop=1;jettySize=auto;html=1;entryX=0.5;entryY=0;entryDx=0;entryDy=0;" edge="1" parent="1" source="t1g4-bJCEiVA6GThXXHM-3" target="t1g4-bJCEiVA6GThXXHM-52">
          <mxGeometry relative="1" as="geometry" />
        </mxCell>
        <mxCell id="t1g4-bJCEiVA6GThXXHM-3" value="Canteen" style="rounded=0;whiteSpace=wrap;html=1;fillColor=#008a00;fontColor=#ffffff;strokeColor=#005700;" vertex="1" parent="1">
          <mxGeometry x="590" y="130" width="120" height="60" as="geometry" />
        </mxCell>
        <mxCell id="t1g4-bJCEiVA6GThXXHM-63" style="edgeStyle=orthogonalEdgeStyle;rounded=0;orthogonalLoop=1;jettySize=auto;html=1;exitX=1;exitY=1;exitDx=0;exitDy=0;entryX=0;entryY=0.5;entryDx=0;entryDy=0;" edge="1" parent="1" source="t1g4-bJCEiVA6GThXXHM-6" target="t1g4-bJCEiVA6GThXXHM-2">
          <mxGeometry relative="1" as="geometry" />
        </mxCell>
        <mxCell id="t1g4-bJCEiVA6GThXXHM-6" value="&lt;u&gt;Student_id&lt;/u&gt;" style="ellipse;whiteSpace=wrap;html=1;" vertex="1" parent="1">
          <mxGeometry x="10" y="110" width="90" height="60" as="geometry" />
        </mxCell>
        <mxCell id="t1g4-bJCEiVA6GThXXHM-61" style="edgeStyle=orthogonalEdgeStyle;rounded=0;orthogonalLoop=1;jettySize=auto;html=1;exitX=1;exitY=1;exitDx=0;exitDy=0;" edge="1" parent="1" source="t1g4-bJCEiVA6GThXXHM-7">
          <mxGeometry relative="1" as="geometry">
            <mxPoint x="150" y="130" as="targetPoint" />
          </mxGeometry>
        </mxCell>
        <mxCell id="t1g4-bJCEiVA6GThXXHM-7" value="Name" style="ellipse;whiteSpace=wrap;html=1;" vertex="1" parent="1">
          <mxGeometry x="50" y="20" width="80" height="60" as="geometry" />
        </mxCell>
        <mxCell id="t1g4-bJCEiVA6GThXXHM-62" style="edgeStyle=orthogonalEdgeStyle;rounded=0;orthogonalLoop=1;jettySize=auto;html=1;exitX=0.5;exitY=1;exitDx=0;exitDy=0;entryX=0.5;entryY=0;entryDx=0;entryDy=0;" edge="1" parent="1" source="t1g4-bJCEiVA6GThXXHM-9" target="t1g4-bJCEiVA6GThXXHM-2">
          <mxGeometry relative="1" as="geometry" />
        </mxCell>
        <mxCell id="t1g4-bJCEiVA6GThXXHM-9" value="Fav Food" style="ellipse;whiteSpace=wrap;html=1;" vertex="1" parent="1">
          <mxGeometry x="150" y="20" width="120" height="80" as="geometry" />
        </mxCell>
        <mxCell id="t1g4-bJCEiVA6GThXXHM-12" value="Canteen Items" style="rounded=0;whiteSpace=wrap;html=1;fillColor=#f0a30a;fontColor=#000000;strokeColor=#BD7000;" vertex="1" parent="1">
          <mxGeometry x="590" y="280" width="120" height="60" as="geometry" />
        </mxCell>
        <mxCell id="t1g4-bJCEiVA6GThXXHM-15" value="&lt;u&gt;Item_id&lt;/u&gt;" style="ellipse;whiteSpace=wrap;html=1;" vertex="1" parent="1">
          <mxGeometry x="720" y="210" width="90" height="60" as="geometry" />
        </mxCell>
        <mxCell id="t1g4-bJCEiVA6GThXXHM-23" style="edgeStyle=orthogonalEdgeStyle;rounded=0;orthogonalLoop=1;jettySize=auto;html=1;exitX=0.5;exitY=0;exitDx=0;exitDy=0;entryX=1;entryY=0;entryDx=0;entryDy=0;" edge="1" parent="1" source="t1g4-bJCEiVA6GThXXHM-16" target="t1g4-bJCEiVA6GThXXHM-12">
          <mxGeometry relative="1" as="geometry" />
        </mxCell>
        <mxCell id="t1g4-bJCEiVA6GThXXHM-16" value="Item_name" style="ellipse;whiteSpace=wrap;html=1;" vertex="1" parent="1">
          <mxGeometry x="720" y="290" width="90" height="50" as="geometry" />
        </mxCell>
        <mxCell id="t1g4-bJCEiVA6GThXXHM-21" style="edgeStyle=orthogonalEdgeStyle;rounded=0;orthogonalLoop=1;jettySize=auto;html=1;exitX=0;exitY=0;exitDx=0;exitDy=0;entryX=1;entryY=1;entryDx=0;entryDy=0;" edge="1" parent="1" source="t1g4-bJCEiVA6GThXXHM-17" target="t1g4-bJCEiVA6GThXXHM-12">
          <mxGeometry relative="1" as="geometry" />
        </mxCell>
        <mxCell id="t1g4-bJCEiVA6GThXXHM-17" value="Price" style="ellipse;whiteSpace=wrap;html=1;" vertex="1" parent="1">
          <mxGeometry x="720" y="350" width="90" height="40" as="geometry" />
        </mxCell>
        <mxCell id="t1g4-bJCEiVA6GThXXHM-19" style="edgeStyle=orthogonalEdgeStyle;rounded=0;orthogonalLoop=1;jettySize=auto;html=1;exitX=0;exitY=0.5;exitDx=0;exitDy=0;entryX=0.847;entryY=-0.05;entryDx=0;entryDy=0;entryPerimeter=0;" edge="1" parent="1" source="t1g4-bJCEiVA6GThXXHM-15" target="t1g4-bJCEiVA6GThXXHM-12">
          <mxGeometry relative="1" as="geometry" />
        </mxCell>
        <mxCell id="t1g4-bJCEiVA6GThXXHM-38" style="edgeStyle=orthogonalEdgeStyle;rounded=0;orthogonalLoop=1;jettySize=auto;html=1;exitX=1;exitY=0.5;exitDx=0;exitDy=0;entryX=0;entryY=0.5;entryDx=0;entryDy=0;" edge="1" parent="1" source="t1g4-bJCEiVA6GThXXHM-26" target="t1g4-bJCEiVA6GThXXHM-31">
          <mxGeometry relative="1" as="geometry" />
        </mxCell>
        <mxCell id="t1g4-bJCEiVA6GThXXHM-26" value="Canteen Worker" style="rounded=0;whiteSpace=wrap;html=1;fillColor=#a20025;fontColor=#ffffff;strokeColor=#6F0000;" vertex="1" parent="1">
          <mxGeometry x="140" y="360" width="120" height="60" as="geometry" />
        </mxCell>
        <mxCell id="t1g4-bJCEiVA6GThXXHM-57" style="edgeStyle=orthogonalEdgeStyle;rounded=0;orthogonalLoop=1;jettySize=auto;html=1;exitX=1;exitY=0.5;exitDx=0;exitDy=0;entryX=0;entryY=0.75;entryDx=0;entryDy=0;" edge="1" parent="1" source="t1g4-bJCEiVA6GThXXHM-27" target="t1g4-bJCEiVA6GThXXHM-26">
          <mxGeometry relative="1" as="geometry" />
        </mxCell>
        <mxCell id="t1g4-bJCEiVA6GThXXHM-27" value="&lt;u&gt;worker_id&lt;/u&gt;" style="ellipse;whiteSpace=wrap;html=1;" vertex="1" parent="1">
          <mxGeometry x="30" y="380" width="90" height="50" as="geometry" />
        </mxCell>
        <mxCell id="t1g4-bJCEiVA6GThXXHM-58" style="edgeStyle=orthogonalEdgeStyle;rounded=0;orthogonalLoop=1;jettySize=auto;html=1;exitX=1;exitY=0;exitDx=0;exitDy=0;entryX=0;entryY=1;entryDx=0;entryDy=0;" edge="1" parent="1" source="t1g4-bJCEiVA6GThXXHM-28" target="t1g4-bJCEiVA6GThXXHM-26">
          <mxGeometry relative="1" as="geometry" />
        </mxCell>
        <mxCell id="t1g4-bJCEiVA6GThXXHM-28" value="Name" style="ellipse;whiteSpace=wrap;html=1;" vertex="1" parent="1">
          <mxGeometry x="30" y="440" width="100" height="50" as="geometry" />
        </mxCell>
        <mxCell id="t1g4-bJCEiVA6GThXXHM-29" value="Role" style="ellipse;whiteSpace=wrap;html=1;" vertex="1" parent="1">
          <mxGeometry x="140" y="440" width="100" height="50" as="geometry" />
        </mxCell>
        <mxCell id="t1g4-bJCEiVA6GThXXHM-33" style="edgeStyle=orthogonalEdgeStyle;rounded=0;orthogonalLoop=1;jettySize=auto;html=1;entryX=0;entryY=0.5;entryDx=0;entryDy=0;" edge="1" parent="1" source="t1g4-bJCEiVA6GThXXHM-30" target="t1g4-bJCEiVA6GThXXHM-12">
          <mxGeometry relative="1" as="geometry" />
        </mxCell>
        <mxCell id="t1g4-bJCEiVA6GThXXHM-30" value="Eats" style="rhombus;whiteSpace=wrap;html=1;" vertex="1" parent="1">
          <mxGeometry x="360" y="230" width="110" height="80" as="geometry" />
        </mxCell>
        <mxCell id="t1g4-bJCEiVA6GThXXHM-39" style="edgeStyle=orthogonalEdgeStyle;rounded=0;orthogonalLoop=1;jettySize=auto;html=1;exitX=1;exitY=0.5;exitDx=0;exitDy=0;entryX=0;entryY=1;entryDx=0;entryDy=0;" edge="1" parent="1" source="t1g4-bJCEiVA6GThXXHM-31" target="t1g4-bJCEiVA6GThXXHM-12">
          <mxGeometry relative="1" as="geometry" />
        </mxCell>
        <mxCell id="t1g4-bJCEiVA6GThXXHM-42" style="edgeStyle=orthogonalEdgeStyle;rounded=0;orthogonalLoop=1;jettySize=auto;html=1;exitX=0;exitY=1;exitDx=0;exitDy=0;entryX=1;entryY=0;entryDx=0;entryDy=0;" edge="1" parent="1" source="t1g4-bJCEiVA6GThXXHM-31" target="t1g4-bJCEiVA6GThXXHM-40">
          <mxGeometry relative="1" as="geometry" />
        </mxCell>
        <mxCell id="t1g4-bJCEiVA6GThXXHM-43" style="edgeStyle=orthogonalEdgeStyle;rounded=0;orthogonalLoop=1;jettySize=auto;html=1;exitX=1;exitY=1;exitDx=0;exitDy=0;entryX=0;entryY=0;entryDx=0;entryDy=0;" edge="1" parent="1" source="t1g4-bJCEiVA6GThXXHM-31" target="t1g4-bJCEiVA6GThXXHM-41">
          <mxGeometry relative="1" as="geometry" />
        </mxCell>
        <mxCell id="t1g4-bJCEiVA6GThXXHM-31" value="Prepares" style="rhombus;whiteSpace=wrap;html=1;" vertex="1" parent="1">
          <mxGeometry x="400" y="360" width="80" height="80" as="geometry" />
        </mxCell>
        <mxCell id="t1g4-bJCEiVA6GThXXHM-36" style="edgeStyle=orthogonalEdgeStyle;rounded=0;orthogonalLoop=1;jettySize=auto;html=1;exitX=0.5;exitY=1;exitDx=0;exitDy=0;entryX=0;entryY=0;entryDx=0;entryDy=0;" edge="1" parent="1" source="t1g4-bJCEiVA6GThXXHM-34" target="t1g4-bJCEiVA6GThXXHM-30">
          <mxGeometry relative="1" as="geometry" />
        </mxCell>
        <mxCell id="t1g4-bJCEiVA6GThXXHM-34" value="Quantity" style="ellipse;whiteSpace=wrap;html=1;" vertex="1" parent="1">
          <mxGeometry x="310" y="180" width="80" height="40" as="geometry" />
        </mxCell>
        <mxCell id="t1g4-bJCEiVA6GThXXHM-37" style="edgeStyle=orthogonalEdgeStyle;rounded=0;orthogonalLoop=1;jettySize=auto;html=1;exitX=0.5;exitY=1;exitDx=0;exitDy=0;entryX=1;entryY=0;entryDx=0;entryDy=0;" edge="1" parent="1" source="t1g4-bJCEiVA6GThXXHM-35" target="t1g4-bJCEiVA6GThXXHM-30">
          <mxGeometry relative="1" as="geometry" />
        </mxCell>
        <mxCell id="t1g4-bJCEiVA6GThXXHM-35" value="Time of day" style="ellipse;whiteSpace=wrap;html=1;" vertex="1" parent="1">
          <mxGeometry x="430" y="180" width="80" height="40" as="geometry" />
        </mxCell>
        <mxCell id="t1g4-bJCEiVA6GThXXHM-40" value="Preparation Time" style="ellipse;whiteSpace=wrap;html=1;" vertex="1" parent="1">
          <mxGeometry x="334" y="460" width="80" height="40" as="geometry" />
        </mxCell>
        <mxCell id="t1g4-bJCEiVA6GThXXHM-41" value="Quality Rating" style="ellipse;whiteSpace=wrap;html=1;" vertex="1" parent="1">
          <mxGeometry x="460" y="460" width="80" height="40" as="geometry" />
        </mxCell>
        <mxCell id="t1g4-bJCEiVA6GThXXHM-55" style="edgeStyle=orthogonalEdgeStyle;rounded=0;orthogonalLoop=1;jettySize=auto;html=1;exitX=1;exitY=0.5;exitDx=0;exitDy=0;entryX=0;entryY=0;entryDx=0;entryDy=0;" edge="1" parent="1" source="t1g4-bJCEiVA6GThXXHM-45">
          <mxGeometry relative="1" as="geometry">
            <mxPoint x="130" y="270" as="targetPoint" />
          </mxGeometry>
        </mxCell>
        <mxCell id="t1g4-bJCEiVA6GThXXHM-45" value="&lt;u&gt;Complaint id&lt;/u&gt;" style="ellipse;whiteSpace=wrap;html=1;" vertex="1" parent="1">
          <mxGeometry x="10" y="250" width="80" height="40" as="geometry" />
        </mxCell>
        <mxCell id="t1g4-bJCEiVA6GThXXHM-56" style="edgeStyle=orthogonalEdgeStyle;rounded=0;orthogonalLoop=1;jettySize=auto;html=1;exitX=1;exitY=0.5;exitDx=0;exitDy=0;entryX=0;entryY=1;entryDx=0;entryDy=0;" edge="1" parent="1" source="t1g4-bJCEiVA6GThXXHM-46">
          <mxGeometry relative="1" as="geometry">
            <mxPoint x="130" y="310" as="targetPoint" />
          </mxGeometry>
        </mxCell>
        <mxCell id="t1g4-bJCEiVA6GThXXHM-46" value="Complaint Reason" style="ellipse;whiteSpace=wrap;html=1;" vertex="1" parent="1">
          <mxGeometry x="20" y="300" width="80" height="50" as="geometry" />
        </mxCell>
        <mxCell id="t1g4-bJCEiVA6GThXXHM-51" style="edgeStyle=orthogonalEdgeStyle;rounded=0;orthogonalLoop=1;jettySize=auto;html=1;exitX=1;exitY=0.5;exitDx=0;exitDy=0;entryX=0;entryY=0.5;entryDx=0;entryDy=0;" edge="1" parent="1" source="t1g4-bJCEiVA6GThXXHM-49" target="t1g4-bJCEiVA6GThXXHM-3">
          <mxGeometry relative="1" as="geometry" />
        </mxCell>
        <mxCell id="t1g4-bJCEiVA6GThXXHM-49" value="Goes" style="rhombus;whiteSpace=wrap;html=1;" vertex="1" parent="1">
          <mxGeometry x="380" y="50" width="80" height="80" as="geometry" />
        </mxCell>
        <mxCell id="t1g4-bJCEiVA6GThXXHM-52" value="Has" style="rhombus;whiteSpace=wrap;html=1;" vertex="1" parent="1">
          <mxGeometry x="620" y="220" width="40" height="30" as="geometry" />
        </mxCell>
        <mxCell id="t1g4-bJCEiVA6GThXXHM-54" style="edgeStyle=orthogonalEdgeStyle;rounded=0;orthogonalLoop=1;jettySize=auto;html=1;exitX=0.5;exitY=1;exitDx=0;exitDy=0;entryX=0.427;entryY=-0.063;entryDx=0;entryDy=0;entryPerimeter=0;" edge="1" parent="1" source="t1g4-bJCEiVA6GThXXHM-52" target="t1g4-bJCEiVA6GThXXHM-12">
          <mxGeometry relative="1" as="geometry" />
        </mxCell>
        <mxCell id="t1g4-bJCEiVA6GThXXHM-59" style="edgeStyle=orthogonalEdgeStyle;rounded=0;orthogonalLoop=1;jettySize=auto;html=1;exitX=0.5;exitY=0;exitDx=0;exitDy=0;entryX=0.417;entryY=1.043;entryDx=0;entryDy=0;entryPerimeter=0;" edge="1" parent="1" source="t1g4-bJCEiVA6GThXXHM-29" target="t1g4-bJCEiVA6GThXXHM-26">
          <mxGeometry relative="1" as="geometry" />
        </mxCell>
        <mxCell id="t1g4-bJCEiVA6GThXXHM-67" style="edgeStyle=orthogonalEdgeStyle;rounded=0;orthogonalLoop=1;jettySize=auto;html=1;exitX=0.5;exitY=1;exitDx=0;exitDy=0;entryX=0.5;entryY=0;entryDx=0;entryDy=0;" edge="1" parent="1" source="t1g4-bJCEiVA6GThXXHM-64" target="t1g4-bJCEiVA6GThXXHM-26">
          <mxGeometry relative="1" as="geometry" />
        </mxCell>
        <mxCell id="t1g4-bJCEiVA6GThXXHM-64" value="" style="rounded=0;whiteSpace=wrap;html=1;" vertex="1" parent="1">
          <mxGeometry x="130" y="250" width="120" height="60" as="geometry" />
        </mxCell>
        <mxCell id="t1g4-bJCEiVA6GThXXHM-66" value="Complaint" style="rounded=0;whiteSpace=wrap;html=1;fillColor=#e51400;fontColor=#ffffff;strokeColor=#B20000;" vertex="1" parent="1">
          <mxGeometry x="140" y="255" width="100" height="50" as="geometry" />
        </mxCell>
      </root>
    </mxGraphModel>
  </diagram>
</mxfile>
